<?xml version="1.0" encoding="utf-8" standalone="no"?>
<!DOCTYPE svg PUBLIC "-//W3C//DTD SVG 1.1//EN"
  "http://www.w3.org/Graphics/SVG/1.1/DTD/svg11.dtd">
<svg xmlns:xlink="http://www.w3.org/1999/xlink" width="720pt" height="432pt" viewBox="0 0 720 432" xmlns="http://www.w3.org/2000/svg" version="1.1">
 <metadata>
  <rdf:RDF xmlns:dc="http://purl.org/dc/elements/1.1/" xmlns:cc="http://creativecommons.org/ns#" xmlns:rdf="http://www.w3.org/1999/02/22-rdf-syntax-ns#">
   <cc:Work>
    <dc:type rdf:resource="http://purl.org/dc/dcmitype/StillImage"/>
    <dc:date>2025-04-26T11:46:20.712276</dc:date>
    <dc:format>image/svg+xml</dc:format>
    <dc:creator>
     <cc:Agent>
      <dc:title>Matplotlib v3.10.0, https://matplotlib.org/</dc:title>
     </cc:Agent>
    </dc:creator>
   </cc:Work>
  </rdf:RDF>
 </metadata>
 <defs>
  <style type="text/css">*{stroke-linejoin: round; stroke-linecap: butt}</style>
 </defs>
 <g id="figure_1">
  <g id="patch_1">
   <path d="M 0 432 
L 720 432 
L 720 0 
L 0 0 
z
" style="fill: #ffffff"/>
  </g>
  <g id="axes_1">
   <g id="patch_2">
    <path d="M 90 384.48 
L 648 384.48 
L 648 51.84 
L 90 51.84 
z
" style="fill: #ffffff"/>
   </g>
   <g id="matplotlib.axis_1">
    <g id="xtick_1">
     <g id="line2d_1">
      <path d="M 114.569181 384.48 
L 114.569181 51.84 
" clip-path="url(#p7b5bf04468)" style="fill: none; stroke: #b0b0b0; stroke-width: 0.8; stroke-linecap: square"/>
     </g>
     <g id="line2d_2">
      <defs>
       <path id="m234f1ad652" d="M 0 0 
L 0 3.5 
" style="stroke: #000000; stroke-width: 0.8"/>
      </defs>
      <g>
       <use xlink:href="#m234f1ad652" x="114.569181" y="384.48" style="stroke: #000000; stroke-width: 0.8"/>
      </g>
     </g>
     <g id="text_1">
      <!-- 5.0 -->
      <g transform="translate(106.617619 399.078438) scale(0.1 -0.1)">
       <defs>
        <path id="DejaVuSans-35" d="M 691 4666 
L 3169 4666 
L 3169 4134 
L 1269 4134 
L 1269 2991 
Q 1406 3038 1543 3061 
Q 1681 3084 1819 3084 
Q 2600 3084 3056 2656 
Q 3513 2228 3513 1497 
Q 3513 744 3044 326 
Q 2575 -91 1722 -91 
Q 1428 -91 1123 -41 
Q 819 9 494 109 
L 494 744 
Q 775 591 1075 516 
Q 1375 441 1709 441 
Q 2250 441 2565 725 
Q 2881 1009 2881 1497 
Q 2881 1984 2565 2268 
Q 2250 2553 1709 2553 
Q 1456 2553 1204 2497 
Q 953 2441 691 2322 
L 691 4666 
z
" transform="scale(0.015625)"/>
        <path id="DejaVuSans-2e" d="M 684 794 
L 1344 794 
L 1344 0 
L 684 0 
L 684 794 
z
" transform="scale(0.015625)"/>
        <path id="DejaVuSans-30" d="M 2034 4250 
Q 1547 4250 1301 3770 
Q 1056 3291 1056 2328 
Q 1056 1369 1301 889 
Q 1547 409 2034 409 
Q 2525 409 2770 889 
Q 3016 1369 3016 2328 
Q 3016 3291 2770 3770 
Q 2525 4250 2034 4250 
z
M 2034 4750 
Q 2819 4750 3233 4129 
Q 3647 3509 3647 2328 
Q 3647 1150 3233 529 
Q 2819 -91 2034 -91 
Q 1250 -91 836 529 
Q 422 1150 422 2328 
Q 422 3509 836 4129 
Q 1250 4750 2034 4750 
z
" transform="scale(0.015625)"/>
       </defs>
       <use xlink:href="#DejaVuSans-35"/>
       <use xlink:href="#DejaVuSans-2e" transform="translate(63.623047 0)"/>
       <use xlink:href="#DejaVuSans-30" transform="translate(95.410156 0)"/>
      </g>
     </g>
    </g>
    <g id="xtick_2">
     <g id="line2d_3">
      <path d="M 188.403278 384.48 
L 188.403278 51.84 
" clip-path="url(#p7b5bf04468)" style="fill: none; stroke: #b0b0b0; stroke-width: 0.8; stroke-linecap: square"/>
     </g>
     <g id="line2d_4">
      <g>
       <use xlink:href="#m234f1ad652" x="188.403278" y="384.48" style="stroke: #000000; stroke-width: 0.8"/>
      </g>
     </g>
     <g id="text_2">
      <!-- 7.5 -->
      <g transform="translate(180.451715 399.078438) scale(0.1 -0.1)">
       <defs>
        <path id="DejaVuSans-37" d="M 525 4666 
L 3525 4666 
L 3525 4397 
L 1831 0 
L 1172 0 
L 2766 4134 
L 525 4134 
L 525 4666 
z
" transform="scale(0.015625)"/>
       </defs>
       <use xlink:href="#DejaVuSans-37"/>
       <use xlink:href="#DejaVuSans-2e" transform="translate(63.623047 0)"/>
       <use xlink:href="#DejaVuSans-35" transform="translate(95.410156 0)"/>
      </g>
     </g>
    </g>
    <g id="xtick_3">
     <g id="line2d_5">
      <path d="M 262.237374 384.48 
L 262.237374 51.84 
" clip-path="url(#p7b5bf04468)" style="fill: none; stroke: #b0b0b0; stroke-width: 0.8; stroke-linecap: square"/>
     </g>
     <g id="line2d_6">
      <g>
       <use xlink:href="#m234f1ad652" x="262.237374" y="384.48" style="stroke: #000000; stroke-width: 0.8"/>
      </g>
     </g>
     <g id="text_3">
      <!-- 10.0 -->
      <g transform="translate(251.104561 399.078438) scale(0.1 -0.1)">
       <defs>
        <path id="DejaVuSans-31" d="M 794 531 
L 1825 531 
L 1825 4091 
L 703 3866 
L 703 4441 
L 1819 4666 
L 2450 4666 
L 2450 531 
L 3481 531 
L 3481 0 
L 794 0 
L 794 531 
z
" transform="scale(0.015625)"/>
       </defs>
       <use xlink:href="#DejaVuSans-31"/>
       <use xlink:href="#DejaVuSans-30" transform="translate(63.623047 0)"/>
       <use xlink:href="#DejaVuSans-2e" transform="translate(127.246094 0)"/>
       <use xlink:href="#DejaVuSans-30" transform="translate(159.033203 0)"/>
      </g>
     </g>
    </g>
    <g id="xtick_4">
     <g id="line2d_7">
      <path d="M 336.07147 384.48 
L 336.07147 51.84 
" clip-path="url(#p7b5bf04468)" style="fill: none; stroke: #b0b0b0; stroke-width: 0.8; stroke-linecap: square"/>
     </g>
     <g id="line2d_8">
      <g>
       <use xlink:href="#m234f1ad652" x="336.07147" y="384.48" style="stroke: #000000; stroke-width: 0.8"/>
      </g>
     </g>
     <g id="text_4">
      <!-- 12.5 -->
      <g transform="translate(324.938657 399.078438) scale(0.1 -0.1)">
       <defs>
        <path id="DejaVuSans-32" d="M 1228 531 
L 3431 531 
L 3431 0 
L 469 0 
L 469 531 
Q 828 903 1448 1529 
Q 2069 2156 2228 2338 
Q 2531 2678 2651 2914 
Q 2772 3150 2772 3378 
Q 2772 3750 2511 3984 
Q 2250 4219 1831 4219 
Q 1534 4219 1204 4116 
Q 875 4013 500 3803 
L 500 4441 
Q 881 4594 1212 4672 
Q 1544 4750 1819 4750 
Q 2544 4750 2975 4387 
Q 3406 4025 3406 3419 
Q 3406 3131 3298 2873 
Q 3191 2616 2906 2266 
Q 2828 2175 2409 1742 
Q 1991 1309 1228 531 
z
" transform="scale(0.015625)"/>
       </defs>
       <use xlink:href="#DejaVuSans-31"/>
       <use xlink:href="#DejaVuSans-32" transform="translate(63.623047 0)"/>
       <use xlink:href="#DejaVuSans-2e" transform="translate(127.246094 0)"/>
       <use xlink:href="#DejaVuSans-35" transform="translate(159.033203 0)"/>
      </g>
     </g>
    </g>
    <g id="xtick_5">
     <g id="line2d_9">
      <path d="M 409.905566 384.48 
L 409.905566 51.84 
" clip-path="url(#p7b5bf04468)" style="fill: none; stroke: #b0b0b0; stroke-width: 0.8; stroke-linecap: square"/>
     </g>
     <g id="line2d_10">
      <g>
       <use xlink:href="#m234f1ad652" x="409.905566" y="384.48" style="stroke: #000000; stroke-width: 0.8"/>
      </g>
     </g>
     <g id="text_5">
      <!-- 15.0 -->
      <g transform="translate(398.772753 399.078438) scale(0.1 -0.1)">
       <use xlink:href="#DejaVuSans-31"/>
       <use xlink:href="#DejaVuSans-35" transform="translate(63.623047 0)"/>
       <use xlink:href="#DejaVuSans-2e" transform="translate(127.246094 0)"/>
       <use xlink:href="#DejaVuSans-30" transform="translate(159.033203 0)"/>
      </g>
     </g>
    </g>
    <g id="xtick_6">
     <g id="line2d_11">
      <path d="M 483.739662 384.48 
L 483.739662 51.84 
" clip-path="url(#p7b5bf04468)" style="fill: none; stroke: #b0b0b0; stroke-width: 0.8; stroke-linecap: square"/>
     </g>
     <g id="line2d_12">
      <g>
       <use xlink:href="#m234f1ad652" x="483.739662" y="384.48" style="stroke: #000000; stroke-width: 0.8"/>
      </g>
     </g>
     <g id="text_6">
      <!-- 17.5 -->
      <g transform="translate(472.60685 399.078438) scale(0.1 -0.1)">
       <use xlink:href="#DejaVuSans-31"/>
       <use xlink:href="#DejaVuSans-37" transform="translate(63.623047 0)"/>
       <use xlink:href="#DejaVuSans-2e" transform="translate(127.246094 0)"/>
       <use xlink:href="#DejaVuSans-35" transform="translate(159.033203 0)"/>
      </g>
     </g>
    </g>
    <g id="xtick_7">
     <g id="line2d_13">
      <path d="M 557.573758 384.48 
L 557.573758 51.84 
" clip-path="url(#p7b5bf04468)" style="fill: none; stroke: #b0b0b0; stroke-width: 0.8; stroke-linecap: square"/>
     </g>
     <g id="line2d_14">
      <g>
       <use xlink:href="#m234f1ad652" x="557.573758" y="384.48" style="stroke: #000000; stroke-width: 0.8"/>
      </g>
     </g>
     <g id="text_7">
      <!-- 20.0 -->
      <g transform="translate(546.440946 399.078438) scale(0.1 -0.1)">
       <use xlink:href="#DejaVuSans-32"/>
       <use xlink:href="#DejaVuSans-30" transform="translate(63.623047 0)"/>
       <use xlink:href="#DejaVuSans-2e" transform="translate(127.246094 0)"/>
       <use xlink:href="#DejaVuSans-30" transform="translate(159.033203 0)"/>
      </g>
     </g>
    </g>
    <g id="xtick_8">
     <g id="line2d_15">
      <path d="M 631.407854 384.48 
L 631.407854 51.84 
" clip-path="url(#p7b5bf04468)" style="fill: none; stroke: #b0b0b0; stroke-width: 0.8; stroke-linecap: square"/>
     </g>
     <g id="line2d_16">
      <g>
       <use xlink:href="#m234f1ad652" x="631.407854" y="384.48" style="stroke: #000000; stroke-width: 0.8"/>
      </g>
     </g>
     <g id="text_8">
      <!-- 22.5 -->
      <g transform="translate(620.275042 399.078438) scale(0.1 -0.1)">
       <use xlink:href="#DejaVuSans-32"/>
       <use xlink:href="#DejaVuSans-32" transform="translate(63.623047 0)"/>
       <use xlink:href="#DejaVuSans-2e" transform="translate(127.246094 0)"/>
       <use xlink:href="#DejaVuSans-35" transform="translate(159.033203 0)"/>
      </g>
     </g>
    </g>
    <g id="text_9">
     <!-- População da Cidade em 10,000s -->
     <g transform="translate(285.427344 412.926875) scale(0.1 -0.1)">
      <defs>
       <path id="DejaVuSans-50" d="M 1259 4147 
L 1259 2394 
L 2053 2394 
Q 2494 2394 2734 2622 
Q 2975 2850 2975 3272 
Q 2975 3691 2734 3919 
Q 2494 4147 2053 4147 
L 1259 4147 
z
M 628 4666 
L 2053 4666 
Q 2838 4666 3239 4311 
Q 3641 3956 3641 3272 
Q 3641 2581 3239 2228 
Q 2838 1875 2053 1875 
L 1259 1875 
L 1259 0 
L 628 0 
L 628 4666 
z
" transform="scale(0.015625)"/>
       <path id="DejaVuSans-6f" d="M 1959 3097 
Q 1497 3097 1228 2736 
Q 959 2375 959 1747 
Q 959 1119 1226 758 
Q 1494 397 1959 397 
Q 2419 397 2687 759 
Q 2956 1122 2956 1747 
Q 2956 2369 2687 2733 
Q 2419 3097 1959 3097 
z
M 1959 3584 
Q 2709 3584 3137 3096 
Q 3566 2609 3566 1747 
Q 3566 888 3137 398 
Q 2709 -91 1959 -91 
Q 1206 -91 779 398 
Q 353 888 353 1747 
Q 353 2609 779 3096 
Q 1206 3584 1959 3584 
z
" transform="scale(0.015625)"/>
       <path id="DejaVuSans-70" d="M 1159 525 
L 1159 -1331 
L 581 -1331 
L 581 3500 
L 1159 3500 
L 1159 2969 
Q 1341 3281 1617 3432 
Q 1894 3584 2278 3584 
Q 2916 3584 3314 3078 
Q 3713 2572 3713 1747 
Q 3713 922 3314 415 
Q 2916 -91 2278 -91 
Q 1894 -91 1617 61 
Q 1341 213 1159 525 
z
M 3116 1747 
Q 3116 2381 2855 2742 
Q 2594 3103 2138 3103 
Q 1681 3103 1420 2742 
Q 1159 2381 1159 1747 
Q 1159 1113 1420 752 
Q 1681 391 2138 391 
Q 2594 391 2855 752 
Q 3116 1113 3116 1747 
z
" transform="scale(0.015625)"/>
       <path id="DejaVuSans-75" d="M 544 1381 
L 544 3500 
L 1119 3500 
L 1119 1403 
Q 1119 906 1312 657 
Q 1506 409 1894 409 
Q 2359 409 2629 706 
Q 2900 1003 2900 1516 
L 2900 3500 
L 3475 3500 
L 3475 0 
L 2900 0 
L 2900 538 
Q 2691 219 2414 64 
Q 2138 -91 1772 -91 
Q 1169 -91 856 284 
Q 544 659 544 1381 
z
M 1991 3584 
L 1991 3584 
z
" transform="scale(0.015625)"/>
       <path id="DejaVuSans-6c" d="M 603 4863 
L 1178 4863 
L 1178 0 
L 603 0 
L 603 4863 
z
" transform="scale(0.015625)"/>
       <path id="DejaVuSans-61" d="M 2194 1759 
Q 1497 1759 1228 1600 
Q 959 1441 959 1056 
Q 959 750 1161 570 
Q 1363 391 1709 391 
Q 2188 391 2477 730 
Q 2766 1069 2766 1631 
L 2766 1759 
L 2194 1759 
z
M 3341 1997 
L 3341 0 
L 2766 0 
L 2766 531 
Q 2569 213 2275 61 
Q 1981 -91 1556 -91 
Q 1019 -91 701 211 
Q 384 513 384 1019 
Q 384 1609 779 1909 
Q 1175 2209 1959 2209 
L 2766 2209 
L 2766 2266 
Q 2766 2663 2505 2880 
Q 2244 3097 1772 3097 
Q 1472 3097 1187 3025 
Q 903 2953 641 2809 
L 641 3341 
Q 956 3463 1253 3523 
Q 1550 3584 1831 3584 
Q 2591 3584 2966 3190 
Q 3341 2797 3341 1997 
z
" transform="scale(0.015625)"/>
       <path id="DejaVuSans-e7" d="M 3122 3366 
L 3122 2828 
Q 2878 2963 2633 3030 
Q 2388 3097 2138 3097 
Q 1578 3097 1268 2742 
Q 959 2388 959 1747 
Q 959 1106 1268 751 
Q 1578 397 2138 397 
Q 2388 397 2633 464 
Q 2878 531 3122 666 
L 3122 134 
Q 2881 22 2623 -34 
Q 2366 -91 2075 -91 
Q 1284 -91 818 406 
Q 353 903 353 1747 
Q 353 2603 823 3093 
Q 1294 3584 2113 3584 
Q 2378 3584 2631 3529 
Q 2884 3475 3122 3366 
z
M 2309 0 
Q 2481 -194 2565 -358 
Q 2650 -522 2650 -672 
Q 2650 -950 2462 -1092 
Q 2275 -1234 1906 -1234 
Q 1763 -1234 1627 -1215 
Q 1491 -1197 1356 -1159 
L 1356 -750 
Q 1463 -803 1578 -826 
Q 1694 -850 1841 -850 
Q 2025 -850 2119 -775 
Q 2213 -700 2213 -556 
Q 2213 -463 2145 -327 
Q 2078 -191 1938 0 
L 2309 0 
z
" transform="scale(0.015625)"/>
       <path id="DejaVuSans-e3" d="M 2194 1759 
Q 1497 1759 1228 1600 
Q 959 1441 959 1056 
Q 959 750 1161 570 
Q 1363 391 1709 391 
Q 2188 391 2477 730 
Q 2766 1069 2766 1631 
L 2766 1759 
L 2194 1759 
z
M 3341 1997 
L 3341 0 
L 2766 0 
L 2766 531 
Q 2569 213 2275 61 
Q 1981 -91 1556 -91 
Q 1019 -91 701 211 
Q 384 513 384 1019 
Q 384 1609 779 1909 
Q 1175 2209 1959 2209 
L 2766 2209 
L 2766 2266 
Q 2766 2663 2505 2880 
Q 2244 3097 1772 3097 
Q 1472 3097 1187 3025 
Q 903 2953 641 2809 
L 641 3341 
Q 956 3463 1253 3523 
Q 1550 3584 1831 3584 
Q 2591 3584 2966 3190 
Q 3341 2797 3341 1997 
z
M 1844 4281 
L 1666 4453 
Q 1597 4516 1545 4545 
Q 1494 4575 1453 4575 
Q 1334 4575 1278 4461 
Q 1222 4347 1216 4091 
L 825 4091 
Q 831 4513 990 4742 
Q 1150 4972 1434 4972 
Q 1553 4972 1653 4928 
Q 1753 4884 1869 4781 
L 2047 4609 
Q 2116 4547 2167 4517 
Q 2219 4488 2259 4488 
Q 2378 4488 2434 4602 
Q 2491 4716 2497 4972 
L 2888 4972 
Q 2881 4550 2722 4320 
Q 2563 4091 2278 4091 
Q 2159 4091 2059 4134 
Q 1959 4178 1844 4281 
z
" transform="scale(0.015625)"/>
       <path id="DejaVuSans-20" transform="scale(0.015625)"/>
       <path id="DejaVuSans-64" d="M 2906 2969 
L 2906 4863 
L 3481 4863 
L 3481 0 
L 2906 0 
L 2906 525 
Q 2725 213 2448 61 
Q 2172 -91 1784 -91 
Q 1150 -91 751 415 
Q 353 922 353 1747 
Q 353 2572 751 3078 
Q 1150 3584 1784 3584 
Q 2172 3584 2448 3432 
Q 2725 3281 2906 2969 
z
M 947 1747 
Q 947 1113 1208 752 
Q 1469 391 1925 391 
Q 2381 391 2643 752 
Q 2906 1113 2906 1747 
Q 2906 2381 2643 2742 
Q 2381 3103 1925 3103 
Q 1469 3103 1208 2742 
Q 947 2381 947 1747 
z
" transform="scale(0.015625)"/>
       <path id="DejaVuSans-43" d="M 4122 4306 
L 4122 3641 
Q 3803 3938 3442 4084 
Q 3081 4231 2675 4231 
Q 1875 4231 1450 3742 
Q 1025 3253 1025 2328 
Q 1025 1406 1450 917 
Q 1875 428 2675 428 
Q 3081 428 3442 575 
Q 3803 722 4122 1019 
L 4122 359 
Q 3791 134 3420 21 
Q 3050 -91 2638 -91 
Q 1578 -91 968 557 
Q 359 1206 359 2328 
Q 359 3453 968 4101 
Q 1578 4750 2638 4750 
Q 3056 4750 3426 4639 
Q 3797 4528 4122 4306 
z
" transform="scale(0.015625)"/>
       <path id="DejaVuSans-69" d="M 603 3500 
L 1178 3500 
L 1178 0 
L 603 0 
L 603 3500 
z
M 603 4863 
L 1178 4863 
L 1178 4134 
L 603 4134 
L 603 4863 
z
" transform="scale(0.015625)"/>
       <path id="DejaVuSans-65" d="M 3597 1894 
L 3597 1613 
L 953 1613 
Q 991 1019 1311 708 
Q 1631 397 2203 397 
Q 2534 397 2845 478 
Q 3156 559 3463 722 
L 3463 178 
Q 3153 47 2828 -22 
Q 2503 -91 2169 -91 
Q 1331 -91 842 396 
Q 353 884 353 1716 
Q 353 2575 817 3079 
Q 1281 3584 2069 3584 
Q 2775 3584 3186 3129 
Q 3597 2675 3597 1894 
z
M 3022 2063 
Q 3016 2534 2758 2815 
Q 2500 3097 2075 3097 
Q 1594 3097 1305 2825 
Q 1016 2553 972 2059 
L 3022 2063 
z
" transform="scale(0.015625)"/>
       <path id="DejaVuSans-6d" d="M 3328 2828 
Q 3544 3216 3844 3400 
Q 4144 3584 4550 3584 
Q 5097 3584 5394 3201 
Q 5691 2819 5691 2113 
L 5691 0 
L 5113 0 
L 5113 2094 
Q 5113 2597 4934 2840 
Q 4756 3084 4391 3084 
Q 3944 3084 3684 2787 
Q 3425 2491 3425 1978 
L 3425 0 
L 2847 0 
L 2847 2094 
Q 2847 2600 2669 2842 
Q 2491 3084 2119 3084 
Q 1678 3084 1418 2786 
Q 1159 2488 1159 1978 
L 1159 0 
L 581 0 
L 581 3500 
L 1159 3500 
L 1159 2956 
Q 1356 3278 1631 3431 
Q 1906 3584 2284 3584 
Q 2666 3584 2933 3390 
Q 3200 3197 3328 2828 
z
" transform="scale(0.015625)"/>
       <path id="DejaVuSans-2c" d="M 750 794 
L 1409 794 
L 1409 256 
L 897 -744 
L 494 -744 
L 750 256 
L 750 794 
z
" transform="scale(0.015625)"/>
       <path id="DejaVuSans-73" d="M 2834 3397 
L 2834 2853 
Q 2591 2978 2328 3040 
Q 2066 3103 1784 3103 
Q 1356 3103 1142 2972 
Q 928 2841 928 2578 
Q 928 2378 1081 2264 
Q 1234 2150 1697 2047 
L 1894 2003 
Q 2506 1872 2764 1633 
Q 3022 1394 3022 966 
Q 3022 478 2636 193 
Q 2250 -91 1575 -91 
Q 1294 -91 989 -36 
Q 684 19 347 128 
L 347 722 
Q 666 556 975 473 
Q 1284 391 1588 391 
Q 1994 391 2212 530 
Q 2431 669 2431 922 
Q 2431 1156 2273 1281 
Q 2116 1406 1581 1522 
L 1381 1569 
Q 847 1681 609 1914 
Q 372 2147 372 2553 
Q 372 3047 722 3315 
Q 1072 3584 1716 3584 
Q 2034 3584 2315 3537 
Q 2597 3491 2834 3397 
z
" transform="scale(0.015625)"/>
      </defs>
      <use xlink:href="#DejaVuSans-50"/>
      <use xlink:href="#DejaVuSans-6f" transform="translate(56.677734 0)"/>
      <use xlink:href="#DejaVuSans-70" transform="translate(117.859375 0)"/>
      <use xlink:href="#DejaVuSans-75" transform="translate(181.335938 0)"/>
      <use xlink:href="#DejaVuSans-6c" transform="translate(244.714844 0)"/>
      <use xlink:href="#DejaVuSans-61" transform="translate(272.498047 0)"/>
      <use xlink:href="#DejaVuSans-e7" transform="translate(333.777344 0)"/>
      <use xlink:href="#DejaVuSans-e3" transform="translate(388.757812 0)"/>
      <use xlink:href="#DejaVuSans-6f" transform="translate(450.037109 0)"/>
      <use xlink:href="#DejaVuSans-20" transform="translate(511.21875 0)"/>
      <use xlink:href="#DejaVuSans-64" transform="translate(543.005859 0)"/>
      <use xlink:href="#DejaVuSans-61" transform="translate(606.482422 0)"/>
      <use xlink:href="#DejaVuSans-20" transform="translate(667.761719 0)"/>
      <use xlink:href="#DejaVuSans-43" transform="translate(699.548828 0)"/>
      <use xlink:href="#DejaVuSans-69" transform="translate(769.373047 0)"/>
      <use xlink:href="#DejaVuSans-64" transform="translate(797.15625 0)"/>
      <use xlink:href="#DejaVuSans-61" transform="translate(860.632812 0)"/>
      <use xlink:href="#DejaVuSans-64" transform="translate(921.912109 0)"/>
      <use xlink:href="#DejaVuSans-65" transform="translate(985.388672 0)"/>
      <use xlink:href="#DejaVuSans-20" transform="translate(1046.912109 0)"/>
      <use xlink:href="#DejaVuSans-65" transform="translate(1078.699219 0)"/>
      <use xlink:href="#DejaVuSans-6d" transform="translate(1140.222656 0)"/>
      <use xlink:href="#DejaVuSans-20" transform="translate(1237.634766 0)"/>
      <use xlink:href="#DejaVuSans-31" transform="translate(1269.421875 0)"/>
      <use xlink:href="#DejaVuSans-30" transform="translate(1333.044922 0)"/>
      <use xlink:href="#DejaVuSans-2c" transform="translate(1396.667969 0)"/>
      <use xlink:href="#DejaVuSans-30" transform="translate(1428.455078 0)"/>
      <use xlink:href="#DejaVuSans-30" transform="translate(1492.078125 0)"/>
      <use xlink:href="#DejaVuSans-30" transform="translate(1555.701172 0)"/>
      <use xlink:href="#DejaVuSans-73" transform="translate(1619.324219 0)"/>
     </g>
    </g>
   </g>
   <g id="matplotlib.axis_2">
    <g id="ytick_1">
     <g id="line2d_17">
      <path d="M 90 362.023625 
L 648 362.023625 
" clip-path="url(#p7b5bf04468)" style="fill: none; stroke: #b0b0b0; stroke-width: 0.8; stroke-linecap: square"/>
     </g>
     <g id="line2d_18">
      <defs>
       <path id="m961b8ff50b" d="M 0 0 
L -3.5 0 
" style="stroke: #000000; stroke-width: 0.8"/>
      </defs>
      <g>
       <use xlink:href="#m961b8ff50b" x="90" y="362.023625" style="stroke: #000000; stroke-width: 0.8"/>
      </g>
     </g>
     <g id="text_10">
      <!-- 0 -->
      <g transform="translate(76.6375 365.822844) scale(0.1 -0.1)">
       <use xlink:href="#DejaVuSans-30"/>
      </g>
     </g>
    </g>
    <g id="ytick_2">
     <g id="line2d_19">
      <path d="M 90 307.288856 
L 648 307.288856 
" clip-path="url(#p7b5bf04468)" style="fill: none; stroke: #b0b0b0; stroke-width: 0.8; stroke-linecap: square"/>
     </g>
     <g id="line2d_20">
      <g>
       <use xlink:href="#m961b8ff50b" x="90" y="307.288856" style="stroke: #000000; stroke-width: 0.8"/>
      </g>
     </g>
     <g id="text_11">
      <!-- 20 -->
      <g transform="translate(70.275 311.088075) scale(0.1 -0.1)">
       <use xlink:href="#DejaVuSans-32"/>
       <use xlink:href="#DejaVuSans-30" transform="translate(63.623047 0)"/>
      </g>
     </g>
    </g>
    <g id="ytick_3">
     <g id="line2d_21">
      <path d="M 90 252.554087 
L 648 252.554087 
" clip-path="url(#p7b5bf04468)" style="fill: none; stroke: #b0b0b0; stroke-width: 0.8; stroke-linecap: square"/>
     </g>
     <g id="line2d_22">
      <g>
       <use xlink:href="#m961b8ff50b" x="90" y="252.554087" style="stroke: #000000; stroke-width: 0.8"/>
      </g>
     </g>
     <g id="text_12">
      <!-- 40 -->
      <g transform="translate(70.275 256.353306) scale(0.1 -0.1)">
       <defs>
        <path id="DejaVuSans-34" d="M 2419 4116 
L 825 1625 
L 2419 1625 
L 2419 4116 
z
M 2253 4666 
L 3047 4666 
L 3047 1625 
L 3713 1625 
L 3713 1100 
L 3047 1100 
L 3047 0 
L 2419 0 
L 2419 1100 
L 313 1100 
L 313 1709 
L 2253 4666 
z
" transform="scale(0.015625)"/>
       </defs>
       <use xlink:href="#DejaVuSans-34"/>
       <use xlink:href="#DejaVuSans-30" transform="translate(63.623047 0)"/>
      </g>
     </g>
    </g>
    <g id="ytick_4">
     <g id="line2d_23">
      <path d="M 90 197.819318 
L 648 197.819318 
" clip-path="url(#p7b5bf04468)" style="fill: none; stroke: #b0b0b0; stroke-width: 0.8; stroke-linecap: square"/>
     </g>
     <g id="line2d_24">
      <g>
       <use xlink:href="#m961b8ff50b" x="90" y="197.819318" style="stroke: #000000; stroke-width: 0.8"/>
      </g>
     </g>
     <g id="text_13">
      <!-- 60 -->
      <g transform="translate(70.275 201.618537) scale(0.1 -0.1)">
       <defs>
        <path id="DejaVuSans-36" d="M 2113 2584 
Q 1688 2584 1439 2293 
Q 1191 2003 1191 1497 
Q 1191 994 1439 701 
Q 1688 409 2113 409 
Q 2538 409 2786 701 
Q 3034 994 3034 1497 
Q 3034 2003 2786 2293 
Q 2538 2584 2113 2584 
z
M 3366 4563 
L 3366 3988 
Q 3128 4100 2886 4159 
Q 2644 4219 2406 4219 
Q 1781 4219 1451 3797 
Q 1122 3375 1075 2522 
Q 1259 2794 1537 2939 
Q 1816 3084 2150 3084 
Q 2853 3084 3261 2657 
Q 3669 2231 3669 1497 
Q 3669 778 3244 343 
Q 2819 -91 2113 -91 
Q 1303 -91 875 529 
Q 447 1150 447 2328 
Q 447 3434 972 4092 
Q 1497 4750 2381 4750 
Q 2619 4750 2861 4703 
Q 3103 4656 3366 4563 
z
" transform="scale(0.015625)"/>
       </defs>
       <use xlink:href="#DejaVuSans-36"/>
       <use xlink:href="#DejaVuSans-30" transform="translate(63.623047 0)"/>
      </g>
     </g>
    </g>
    <g id="ytick_5">
     <g id="line2d_25">
      <path d="M 90 143.084549 
L 648 143.084549 
" clip-path="url(#p7b5bf04468)" style="fill: none; stroke: #b0b0b0; stroke-width: 0.8; stroke-linecap: square"/>
     </g>
     <g id="line2d_26">
      <g>
       <use xlink:href="#m961b8ff50b" x="90" y="143.084549" style="stroke: #000000; stroke-width: 0.8"/>
      </g>
     </g>
     <g id="text_14">
      <!-- 80 -->
      <g transform="translate(70.275 146.883768) scale(0.1 -0.1)">
       <defs>
        <path id="DejaVuSans-38" d="M 2034 2216 
Q 1584 2216 1326 1975 
Q 1069 1734 1069 1313 
Q 1069 891 1326 650 
Q 1584 409 2034 409 
Q 2484 409 2743 651 
Q 3003 894 3003 1313 
Q 3003 1734 2745 1975 
Q 2488 2216 2034 2216 
z
M 1403 2484 
Q 997 2584 770 2862 
Q 544 3141 544 3541 
Q 544 4100 942 4425 
Q 1341 4750 2034 4750 
Q 2731 4750 3128 4425 
Q 3525 4100 3525 3541 
Q 3525 3141 3298 2862 
Q 3072 2584 2669 2484 
Q 3125 2378 3379 2068 
Q 3634 1759 3634 1313 
Q 3634 634 3220 271 
Q 2806 -91 2034 -91 
Q 1263 -91 848 271 
Q 434 634 434 1313 
Q 434 1759 690 2068 
Q 947 2378 1403 2484 
z
M 1172 3481 
Q 1172 3119 1398 2916 
Q 1625 2713 2034 2713 
Q 2441 2713 2670 2916 
Q 2900 3119 2900 3481 
Q 2900 3844 2670 4047 
Q 2441 4250 2034 4250 
Q 1625 4250 1398 4047 
Q 1172 3844 1172 3481 
z
" transform="scale(0.015625)"/>
       </defs>
       <use xlink:href="#DejaVuSans-38"/>
       <use xlink:href="#DejaVuSans-30" transform="translate(63.623047 0)"/>
      </g>
     </g>
    </g>
    <g id="ytick_6">
     <g id="line2d_27">
      <path d="M 90 88.34978 
L 648 88.34978 
" clip-path="url(#p7b5bf04468)" style="fill: none; stroke: #b0b0b0; stroke-width: 0.8; stroke-linecap: square"/>
     </g>
     <g id="line2d_28">
      <g>
       <use xlink:href="#m961b8ff50b" x="90" y="88.34978" style="stroke: #000000; stroke-width: 0.8"/>
      </g>
     </g>
     <g id="text_15">
      <!-- 100 -->
      <g transform="translate(63.9125 92.148999) scale(0.1 -0.1)">
       <use xlink:href="#DejaVuSans-31"/>
       <use xlink:href="#DejaVuSans-30" transform="translate(63.623047 0)"/>
       <use xlink:href="#DejaVuSans-30" transform="translate(127.246094 0)"/>
      </g>
     </g>
    </g>
    <g id="text_16">
     <!-- Lucro em $10,000s -->
     <g transform="translate(57.832812 266.185) rotate(-90) scale(0.1 -0.1)">
      <defs>
       <path id="DejaVuSans-4c" d="M 628 4666 
L 1259 4666 
L 1259 531 
L 3531 531 
L 3531 0 
L 628 0 
L 628 4666 
z
" transform="scale(0.015625)"/>
       <path id="DejaVuSans-63" d="M 3122 3366 
L 3122 2828 
Q 2878 2963 2633 3030 
Q 2388 3097 2138 3097 
Q 1578 3097 1268 2742 
Q 959 2388 959 1747 
Q 959 1106 1268 751 
Q 1578 397 2138 397 
Q 2388 397 2633 464 
Q 2878 531 3122 666 
L 3122 134 
Q 2881 22 2623 -34 
Q 2366 -91 2075 -91 
Q 1284 -91 818 406 
Q 353 903 353 1747 
Q 353 2603 823 3093 
Q 1294 3584 2113 3584 
Q 2378 3584 2631 3529 
Q 2884 3475 3122 3366 
z
" transform="scale(0.015625)"/>
       <path id="DejaVuSans-72" d="M 2631 2963 
Q 2534 3019 2420 3045 
Q 2306 3072 2169 3072 
Q 1681 3072 1420 2755 
Q 1159 2438 1159 1844 
L 1159 0 
L 581 0 
L 581 3500 
L 1159 3500 
L 1159 2956 
Q 1341 3275 1631 3429 
Q 1922 3584 2338 3584 
Q 2397 3584 2469 3576 
Q 2541 3569 2628 3553 
L 2631 2963 
z
" transform="scale(0.015625)"/>
       <path id="DejaVuSans-24" d="M 2163 -941 
L 1850 -941 
L 1847 0 
Q 1519 6 1191 76 
Q 863 147 531 288 
L 531 850 
Q 850 650 1176 548 
Q 1503 447 1850 444 
L 1850 1869 
Q 1159 1981 845 2250 
Q 531 2519 531 2988 
Q 531 3497 872 3790 
Q 1213 4084 1850 4128 
L 1850 4863 
L 2163 4863 
L 2163 4138 
Q 2453 4125 2725 4076 
Q 2997 4028 3256 3944 
L 3256 3397 
Q 2997 3528 2723 3600 
Q 2450 3672 2163 3684 
L 2163 2350 
Q 2872 2241 3206 1959 
Q 3541 1678 3541 1191 
Q 3541 663 3186 358 
Q 2831 53 2163 6 
L 2163 -941 
z
M 1850 2406 
L 1850 3688 
Q 1488 3647 1297 3481 
Q 1106 3316 1106 3041 
Q 1106 2772 1282 2622 
Q 1459 2472 1850 2406 
z
M 2163 1806 
L 2163 453 
Q 2559 506 2761 678 
Q 2963 850 2963 1131 
Q 2963 1406 2770 1568 
Q 2578 1731 2163 1806 
z
" transform="scale(0.015625)"/>
      </defs>
      <use xlink:href="#DejaVuSans-4c"/>
      <use xlink:href="#DejaVuSans-75" transform="translate(53.962891 0)"/>
      <use xlink:href="#DejaVuSans-63" transform="translate(117.341797 0)"/>
      <use xlink:href="#DejaVuSans-72" transform="translate(172.322266 0)"/>
      <use xlink:href="#DejaVuSans-6f" transform="translate(211.185547 0)"/>
      <use xlink:href="#DejaVuSans-20" transform="translate(272.367188 0)"/>
      <use xlink:href="#DejaVuSans-65" transform="translate(304.154297 0)"/>
      <use xlink:href="#DejaVuSans-6d" transform="translate(365.677734 0)"/>
      <use xlink:href="#DejaVuSans-20" transform="translate(463.089844 0)"/>
      <use xlink:href="#DejaVuSans-24" transform="translate(494.876953 0)"/>
      <use xlink:href="#DejaVuSans-31" transform="translate(558.5 0)"/>
      <use xlink:href="#DejaVuSans-30" transform="translate(622.123047 0)"/>
      <use xlink:href="#DejaVuSans-2c" transform="translate(685.746094 0)"/>
      <use xlink:href="#DejaVuSans-30" transform="translate(717.533203 0)"/>
      <use xlink:href="#DejaVuSans-30" transform="translate(781.15625 0)"/>
      <use xlink:href="#DejaVuSans-30" transform="translate(844.779297 0)"/>
      <use xlink:href="#DejaVuSans-73" transform="translate(908.402344 0)"/>
     </g>
    </g>
   </g>
   <g id="line2d_29">
    <defs>
     <path id="mce20d8c785" d="M -5 5 
L 5 -5 
M -5 -5 
L 5 5 
" style="stroke: #ff0000"/>
    </defs>
    <g clip-path="url(#p7b5bf04468)">
     <use xlink:href="#mce20d8c785" x="147.354474" y="313.878922" style="fill: #ff0000; stroke: #ff0000"/>
     <use xlink:href="#mce20d8c785" x="130.154082" y="337.036656" style="fill: #ff0000; stroke: #ff0000"/>
     <use xlink:href="#mce20d8c785" x="218.486242" y="324.634305" style="fill: #ff0000; stroke: #ff0000"/>
     <use xlink:href="#mce20d8c785" x="173.730966" y="329.582328" style="fill: #ff0000; stroke: #ff0000"/>
     <use xlink:href="#mce20d8c785" x="139.962204" y="343.350038" style="fill: #ff0000; stroke: #ff0000"/>
     <use xlink:href="#mce20d8c785" x="214.478527" y="329.494752" style="fill: #ff0000; stroke: #ff0000"/>
     <use xlink:href="#mce20d8c785" x="187.706284" y="350.123465" style="fill: #ff0000; stroke: #ff0000"/>
     <use xlink:href="#mce20d8c785" x="220.243493" y="329.182764" style="fill: #ff0000; stroke: #ff0000"/>
     <use xlink:href="#mce20d8c785" x="158.462075" y="343.964709" style="fill: #ff0000; stroke: #ff0000"/>
     <use xlink:href="#mce20d8c785" x="116.181718" y="351.578589" style="fill: #ff0000; stroke: #ff0000"/>
     <use xlink:href="#mce20d8c785" x="135.558738" y="353.123204" style="fill: #ff0000; stroke: #ff0000"/>
     <use xlink:href="#mce20d8c785" x="385.215444" y="319.590496" style="fill: #ff0000; stroke: #ff0000"/>
     <use xlink:href="#mce20d8c785" x="136.246872" y="353.388942" style="fill: #ff0000; stroke: #ff0000"/>
     <use xlink:href="#mce20d8c785" x="215.231635" y="342.248501" style="fill: #ff0000; stroke: #ff0000"/>
     <use xlink:href="#mce20d8c785" x="133.491384" y="360.063628" style="fill: #ff0000; stroke: #ff0000"/>
     <use xlink:href="#mce20d8c785" x="125.774244" y="352.409737" style="fill: #ff0000; stroke: #ff0000"/>
     <use xlink:href="#mce20d8c785" x="154.894411" y="347.505775" style="fill: #ff0000; stroke: #ff0000"/>
     <use xlink:href="#mce20d8c785" x="118.411508" y="360.488944" style="fill: #ff0000; stroke: #ff0000"/>
     <use xlink:href="#mce20d8c785" x="156.790471" y="352.029604" style="fill: #ff0000; stroke: #ff0000"/>
     <use xlink:href="#mce20d8c785" x="175.72744" y="347.274521" style="fill: #ff0000; stroke: #ff0000"/>
     <use xlink:href="#mce20d8c785" x="149.687631" y="353.434098" style="fill: #ff0000; stroke: #ff0000"/>
     <use xlink:href="#mce20d8c785" x="565.547841" y="302.453039" style="fill: #ff0000; stroke: #ff0000"/>
     <use xlink:href="#mce20d8c785" x="129.043618" y="350.356909" style="fill: #ff0000; stroke: #ff0000"/>
     <use xlink:href="#mce20d8c785" x="153.733739" y="347.826795" style="fill: #ff0000; stroke: #ff0000"/>
     <use xlink:href="#mce20d8c785" x="131.252734" y="353.587629" style="fill: #ff0000; stroke: #ff0000"/>
     <use xlink:href="#mce20d8c785" x="526.41577" y="300.06934" style="fill: #ff0000; stroke: #ff0000"/>
     <use xlink:href="#mce20d8c785" x="345.758503" y="325.074919" style="fill: #ff0000; stroke: #ff0000"/>
     <use xlink:href="#mce20d8c785" x="290.501066" y="342.73865" style="fill: #ff0000; stroke: #ff0000"/>
     <use xlink:href="#mce20d8c785" x="356.036209" y="321.815464" style="fill: #ff0000; stroke: #ff0000"/>
     <use xlink:href="#mce20d8c785" x="622.636364" y="295.939602" style="fill: #ff0000; stroke: #ff0000"/>
     <use xlink:href="#mce20d8c785" x="122.023472" y="365.362446" style="fill: #ff0000; stroke: #ff0000"/>
     <use xlink:href="#mce20d8c785" x="161.509946" y="345.612499" style="fill: #ff0000; stroke: #ff0000"/>
     <use xlink:href="#mce20d8c785" x="240.033984" y="328.816041" style="fill: #ff0000; stroke: #ff0000"/>
     <use xlink:href="#mce20d8c785" x="140.90728" y="356.962027" style="fill: #ff0000; stroke: #ff0000"/>
     <use xlink:href="#mce20d8c785" x="209.404648" y="344.11824" style="fill: #ff0000; stroke: #ff0000"/>
     <use xlink:href="#mce20d8c785" x="201.203157" y="349.537803" style="fill: #ff0000; stroke: #ff0000"/>
     <use xlink:href="#mce20d8c785" x="206.002373" y="350.758115" style="fill: #ff0000; stroke: #ff0000"/>
     <use xlink:href="#mce20d8c785" x="132.475426" y="352.738419" style="fill: #ff0000; stroke: #ff0000"/>
     <use xlink:href="#mce20d8c785" x="345.994772" y="334.336042" style="fill: #ff0000; stroke: #ff0000"/>
     <use xlink:href="#mce20d8c785" x="154.540008" y="346.978679" style="fill: #ff0000; stroke: #ff0000"/>
     <use xlink:href="#mce20d8c785" x="126.586419" y="360.500439" style="fill: #ff0000; stroke: #ff0000"/>
     <use xlink:href="#mce20d8c785" x="170.166256" y="351.318873" style="fill: #ff0000; stroke: #ff0000"/>
     <use xlink:href="#mce20d8c785" x="312.680828" y="347.285194" style="fill: #ff0000; stroke: #ff0000"/>
     <use xlink:href="#mce20d8c785" x="137.419358" y="355.344341" style="fill: #ff0000; stroke: #ff0000"/>
     <use xlink:href="#mce20d8c785" x="197.99285" y="343.600449" style="fill: #ff0000; stroke: #ff0000"/>
     <use xlink:href="#mce20d8c785" x="176.38604" y="359.160176" style="fill: #ff0000; stroke: #ff0000"/>
     <use xlink:href="#mce20d8c785" x="116.642443" y="347.974031" style="fill: #ff0000; stroke: #ff0000"/>
     <use xlink:href="#mce20d8c785" x="138.237439" y="356.97708" style="fill: #ff0000; stroke: #ff0000"/>
     <use xlink:href="#mce20d8c785" x="312.444559" y="340.11795" style="fill: #ff0000; stroke: #ff0000"/>
     <use xlink:href="#mce20d8c785" x="130.5646" y="359.237899" style="fill: #ff0000; stroke: #ff0000"/>
     <use xlink:href="#mce20d8c785" x="189.59053" y="343.549546" style="fill: #ff0000; stroke: #ff0000"/>
     <use xlink:href="#mce20d8c785" x="123.656682" y="356.989121" style="fill: #ff0000; stroke: #ff0000"/>
     <use xlink:href="#mce20d8c785" x="186.155768" y="350.287122" style="fill: #ff0000; stroke: #ff0000"/>
     <use xlink:href="#mce20d8c785" x="191.448196" y="348.345133" style="fill: #ff0000; stroke: #ff0000"/>
     <use xlink:href="#mce20d8c785" x="153.931615" y="358.128425" style="fill: #ff0000; stroke: #ff0000"/>
     <use xlink:href="#mce20d8c785" x="154.702443" y="365.912804" style="fill: #ff0000; stroke: #ff0000"/>
     <use xlink:href="#mce20d8c785" x="152.200944" y="355.248556" style="fill: #ff0000; stroke: #ff0000"/>
     <use xlink:href="#mce20d8c785" x="133.46185" y="349.423134" style="fill: #ff0000; stroke: #ff0000"/>
     <use xlink:href="#mce20d8c785" x="241.86507" y="351.179573" style="fill: #ff0000; stroke: #ff0000"/>
     <use xlink:href="#mce20d8c785" x="246.100194" y="347.20665" style="fill: #ff0000; stroke: #ff0000"/>
     <use xlink:href="#mce20d8c785" x="227.547162" y="347.876329" style="fill: #ff0000; stroke: #ff0000"/>
     <use xlink:href="#mce20d8c785" x="119.864563" y="364.056447" style="fill: #ff0000; stroke: #ff0000"/>
     <use xlink:href="#mce20d8c785" x="595.347282" y="312.956642" style="fill: #ff0000; stroke: #ff0000"/>
     <use xlink:href="#mce20d8c785" x="407.188471" y="329.03498" style="fill: #ff0000; stroke: #ff0000"/>
     <use xlink:href="#mce20d8c785" x="526.829241" y="315.351288" style="fill: #ff0000; stroke: #ff0000"/>
     <use xlink:href="#mce20d8c785" x="180.080698" y="348.654111" style="fill: #ff0000; stroke: #ff0000"/>
     <use xlink:href="#mce20d8c785" x="211.885474" y="346.303252" style="fill: #ff0000; stroke: #ff0000"/>
     <use xlink:href="#mce20d8c785" x="269.207312" y="340.744389" style="fill: #ff0000; stroke: #ff0000"/>
     <use xlink:href="#mce20d8c785" x="129.318281" y="359.239541" style="fill: #ff0000; stroke: #ff0000"/>
     <use xlink:href="#mce20d8c785" x="567.644729" y="304.574012" style="fill: #ff0000; stroke: #ff0000"/>
     <use xlink:href="#mce20d8c785" x="266.253949" y="343.742486" style="fill: #ff0000; stroke: #ff0000"/>
     <use xlink:href="#mce20d8c785" x="183.51546" y="351.00579" style="fill: #ff0000; stroke: #ff0000"/>
     <use xlink:href="#mce20d8c785" x="144.285928" y="358.524979" style="fill: #ff0000; stroke: #ff0000"/>
     <use xlink:href="#mce20d8c785" x="180.308107" y="352.879908" style="fill: #ff0000; stroke: #ff0000"/>
     <use xlink:href="#mce20d8c785" x="115.363636" y="369.36" style="fill: #ff0000; stroke: #ff0000"/>
     <use xlink:href="#mce20d8c785" x="160.2843" y="361.211416" style="fill: #ff0000; stroke: #ff0000"/>
     <use xlink:href="#mce20d8c785" x="189.543276" y="351.392765" style="fill: #ff0000; stroke: #ff0000"/>
     <use xlink:href="#mce20d8c785" x="115.647159" y="346.420385" style="fill: #ff0000; stroke: #ff0000"/>
     <use xlink:href="#mce20d8c785" x="270.329591" y="343.543525" style="fill: #ff0000; stroke: #ff0000"/>
     <use xlink:href="#mce20d8c785" x="117.749954" y="356.392512" style="fill: #ff0000; stroke: #ff0000"/>
     <use xlink:href="#mce20d8c785" x="136.105111" y="360.711277" style="fill: #ff0000; stroke: #ff0000"/>
     <use xlink:href="#mce20d8c785" x="120.133319" y="361.464756" style="fill: #ff0000; stroke: #ff0000"/>
     <use xlink:href="#mce20d8c785" x="154.607935" y="360.166447" style="fill: #ff0000; stroke: #ff0000"/>
     <use xlink:href="#mce20d8c785" x="255.406243" y="341.379039" style="fill: #ff0000; stroke: #ff0000"/>
     <use xlink:href="#mce20d8c785" x="159.339224" y="347.39959" style="fill: #ff0000; stroke: #ff0000"/>
     <use xlink:href="#mce20d8c785" x="218.444895" y="350.415749" style="fill: #ff0000; stroke: #ff0000"/>
     <use xlink:href="#mce20d8c785" x="238.025697" y="343.419004" style="fill: #ff0000; stroke: #ff0000"/>
     <use xlink:href="#mce20d8c785" x="144.161887" y="359.486806" style="fill: #ff0000; stroke: #ff0000"/>
     <use xlink:href="#mce20d8c785" x="129.938487" y="361.607641" style="fill: #ff0000; stroke: #ff0000"/>
     <use xlink:href="#mce20d8c785" x="116.32348" y="354.302191" style="fill: #ff0000; stroke: #ff0000"/>
     <use xlink:href="#mce20d8c785" x="135.470137" y="356.974069" style="fill: #ff0000; stroke: #ff0000"/>
     <use xlink:href="#mce20d8c785" x="192.437573" y="350.266871" style="fill: #ff0000; stroke: #ff0000"/>
     <use xlink:href="#mce20d8c785" x="140.28412" y="342.311172" style="fill: #ff0000; stroke: #ff0000"/>
     <use xlink:href="#mce20d8c785" x="123.588755" y="356.586" style="fill: #ff0000; stroke: #ff0000"/>
     <use xlink:href="#mce20d8c785" x="211.835266" y="361.628057" style="fill: #ff0000; stroke: #ff0000"/>
     <use xlink:href="#mce20d8c785" x="362.474543" y="337.242185" style="fill: #ff0000; stroke: #ff0000"/>
     <use xlink:href="#mce20d8c785" x="127.472428" y="360.334921" style="fill: #ff0000; stroke: #ff0000"/>
    </g>
   </g>
   <g id="line2d_30">
    <path d="M 147.354474 269.242042 
L 130.154082 276.562603 
L 218.486242 238.968052 
L 173.730966 258.016092 
L 139.962204 272.388224 
L 214.478527 240.673752 
L 187.706284 252.068136 
L 220.243493 238.220158 
L 158.462075 264.514598 
L 116.181718 282.509302 
L 135.558738 274.262358 
L 385.215444 168.007377 
L 136.246872 273.969485 
L 215.231635 240.353226 
L 133.491384 275.142233 
L 125.774244 278.426681 
L 154.894411 266.033011 
L 118.411508 281.560294 
L 156.790471 265.22604 
L 175.72744 257.166384 
L 149.687631 268.24904 
L 565.547841 91.257124 
L 129.043618 277.035222 
L 153.733739 266.526998 
L 131.252734 276.095012 
L 526.41577 107.911904 
L 345.758503 184.800423 
L 290.501066 208.318229 
L 356.036209 180.426186 
L 622.636364 66.96 
L 122.023472 280.023026 
L 161.509946 263.217411 
L 240.033984 229.797238 
L 140.90728 271.985995 
L 209.404648 242.833217 
L 201.203157 246.323808 
L 206.002373 244.28124 
L 132.475426 275.574629 
L 345.994772 184.699866 
L 154.540008 266.183847 
L 126.586419 278.081016 
L 170.166256 259.533248 
L 312.680828 198.878425 
L 137.419358 273.47047 
L 197.99285 247.690128 
L 176.38604 256.886081 
L 116.642443 282.313216 
L 138.237439 273.122291 
L 312.444559 198.978983 
L 130.5646 276.387885 
L 189.59053 251.266192 
L 123.656682 279.327925 
L 186.155768 252.728042 
L 191.448196 250.475562 
L 153.931615 266.442782 
L 154.702443 266.114714 
L 152.200944 267.179363 
L 133.46185 275.154803 
L 241.86507 229.01792 
L 246.100194 227.215433 
L 227.547162 235.111684 
L 119.864563 280.941867 
L 595.347282 78.574352 
L 407.188471 158.655561 
L 526.829241 107.735929 
L 180.080698 255.313618 
L 211.885474 241.777367 
L 269.207312 217.380943 
L 129.318281 276.918324 
L 567.644729 90.364679 
L 266.253949 218.637908 
L 183.51546 253.851768 
L 144.285928 270.548028 
L 180.308107 255.216832 
L 115.363636 282.857481 
L 160.2843 263.739051 
L 189.543276 251.286304 
L 115.647159 282.736813 
L 270.329591 216.903296 
L 117.749954 281.841854 
L 136.105111 274.02982 
L 120.133319 280.827484 
L 154.607935 266.154937 
L 255.406243 223.254738 
L 159.339224 264.14128 
L 218.444895 238.985649 
L 238.025697 230.651974 
L 144.161887 270.60082 
L 129.938487 276.654361 
L 116.32348 282.448968 
L 135.470137 274.300067 
L 192.437573 250.054478 
L 140.28412 272.251215 
L 123.588755 279.356835 
L 211.835266 241.798736 
L 362.474543 177.686004 
L 127.472428 277.703927 
" clip-path="url(#p7b5bf04468)" style="fill: none; stroke: #0000ff; stroke-width: 1.5; stroke-linecap: square"/>
   </g>
   <g id="patch_3">
    <path d="M 90 384.48 
L 90 51.84 
" style="fill: none; stroke: #000000; stroke-width: 0.8; stroke-linejoin: miter; stroke-linecap: square"/>
   </g>
   <g id="patch_4">
    <path d="M 648 384.48 
L 648 51.84 
" style="fill: none; stroke: #000000; stroke-width: 0.8; stroke-linejoin: miter; stroke-linecap: square"/>
   </g>
   <g id="patch_5">
    <path d="M 90 384.48 
L 648 384.48 
" style="fill: none; stroke: #000000; stroke-width: 0.8; stroke-linejoin: miter; stroke-linecap: square"/>
   </g>
   <g id="patch_6">
    <path d="M 90 51.84 
L 648 51.84 
" style="fill: none; stroke: #000000; stroke-width: 0.8; stroke-linejoin: miter; stroke-linecap: square"/>
   </g>
   <g id="text_17">
    <!-- Regressão Linear Ajustada -->
    <g transform="translate(289.30125 45.84) scale(0.12 -0.12)">
     <defs>
      <path id="DejaVuSans-52" d="M 2841 2188 
Q 3044 2119 3236 1894 
Q 3428 1669 3622 1275 
L 4263 0 
L 3584 0 
L 2988 1197 
Q 2756 1666 2539 1819 
Q 2322 1972 1947 1972 
L 1259 1972 
L 1259 0 
L 628 0 
L 628 4666 
L 2053 4666 
Q 2853 4666 3247 4331 
Q 3641 3997 3641 3322 
Q 3641 2881 3436 2590 
Q 3231 2300 2841 2188 
z
M 1259 4147 
L 1259 2491 
L 2053 2491 
Q 2509 2491 2742 2702 
Q 2975 2913 2975 3322 
Q 2975 3731 2742 3939 
Q 2509 4147 2053 4147 
L 1259 4147 
z
" transform="scale(0.015625)"/>
      <path id="DejaVuSans-67" d="M 2906 1791 
Q 2906 2416 2648 2759 
Q 2391 3103 1925 3103 
Q 1463 3103 1205 2759 
Q 947 2416 947 1791 
Q 947 1169 1205 825 
Q 1463 481 1925 481 
Q 2391 481 2648 825 
Q 2906 1169 2906 1791 
z
M 3481 434 
Q 3481 -459 3084 -895 
Q 2688 -1331 1869 -1331 
Q 1566 -1331 1297 -1286 
Q 1028 -1241 775 -1147 
L 775 -588 
Q 1028 -725 1275 -790 
Q 1522 -856 1778 -856 
Q 2344 -856 2625 -561 
Q 2906 -266 2906 331 
L 2906 616 
Q 2728 306 2450 153 
Q 2172 0 1784 0 
Q 1141 0 747 490 
Q 353 981 353 1791 
Q 353 2603 747 3093 
Q 1141 3584 1784 3584 
Q 2172 3584 2450 3431 
Q 2728 3278 2906 2969 
L 2906 3500 
L 3481 3500 
L 3481 434 
z
" transform="scale(0.015625)"/>
      <path id="DejaVuSans-6e" d="M 3513 2113 
L 3513 0 
L 2938 0 
L 2938 2094 
Q 2938 2591 2744 2837 
Q 2550 3084 2163 3084 
Q 1697 3084 1428 2787 
Q 1159 2491 1159 1978 
L 1159 0 
L 581 0 
L 581 3500 
L 1159 3500 
L 1159 2956 
Q 1366 3272 1645 3428 
Q 1925 3584 2291 3584 
Q 2894 3584 3203 3211 
Q 3513 2838 3513 2113 
z
" transform="scale(0.015625)"/>
      <path id="DejaVuSans-41" d="M 2188 4044 
L 1331 1722 
L 3047 1722 
L 2188 4044 
z
M 1831 4666 
L 2547 4666 
L 4325 0 
L 3669 0 
L 3244 1197 
L 1141 1197 
L 716 0 
L 50 0 
L 1831 4666 
z
" transform="scale(0.015625)"/>
      <path id="DejaVuSans-6a" d="M 603 3500 
L 1178 3500 
L 1178 -63 
Q 1178 -731 923 -1031 
Q 669 -1331 103 -1331 
L -116 -1331 
L -116 -844 
L 38 -844 
Q 366 -844 484 -692 
Q 603 -541 603 -63 
L 603 3500 
z
M 603 4863 
L 1178 4863 
L 1178 4134 
L 603 4134 
L 603 4863 
z
" transform="scale(0.015625)"/>
      <path id="DejaVuSans-74" d="M 1172 4494 
L 1172 3500 
L 2356 3500 
L 2356 3053 
L 1172 3053 
L 1172 1153 
Q 1172 725 1289 603 
Q 1406 481 1766 481 
L 2356 481 
L 2356 0 
L 1766 0 
Q 1100 0 847 248 
Q 594 497 594 1153 
L 594 3053 
L 172 3053 
L 172 3500 
L 594 3500 
L 594 4494 
L 1172 4494 
z
" transform="scale(0.015625)"/>
     </defs>
     <use xlink:href="#DejaVuSans-52"/>
     <use xlink:href="#DejaVuSans-65" transform="translate(64.982422 0)"/>
     <use xlink:href="#DejaVuSans-67" transform="translate(126.505859 0)"/>
     <use xlink:href="#DejaVuSans-72" transform="translate(189.982422 0)"/>
     <use xlink:href="#DejaVuSans-65" transform="translate(228.845703 0)"/>
     <use xlink:href="#DejaVuSans-73" transform="translate(290.369141 0)"/>
     <use xlink:href="#DejaVuSans-73" transform="translate(342.46875 0)"/>
     <use xlink:href="#DejaVuSans-e3" transform="translate(394.568359 0)"/>
     <use xlink:href="#DejaVuSans-6f" transform="translate(455.847656 0)"/>
     <use xlink:href="#DejaVuSans-20" transform="translate(517.029297 0)"/>
     <use xlink:href="#DejaVuSans-4c" transform="translate(548.816406 0)"/>
     <use xlink:href="#DejaVuSans-69" transform="translate(604.529297 0)"/>
     <use xlink:href="#DejaVuSans-6e" transform="translate(632.3125 0)"/>
     <use xlink:href="#DejaVuSans-65" transform="translate(695.691406 0)"/>
     <use xlink:href="#DejaVuSans-61" transform="translate(757.214844 0)"/>
     <use xlink:href="#DejaVuSans-72" transform="translate(818.494141 0)"/>
     <use xlink:href="#DejaVuSans-20" transform="translate(859.607422 0)"/>
     <use xlink:href="#DejaVuSans-41" transform="translate(891.394531 0)"/>
     <use xlink:href="#DejaVuSans-6a" transform="translate(959.802734 0)"/>
     <use xlink:href="#DejaVuSans-75" transform="translate(987.585938 0)"/>
     <use xlink:href="#DejaVuSans-73" transform="translate(1050.964844 0)"/>
     <use xlink:href="#DejaVuSans-74" transform="translate(1103.064453 0)"/>
     <use xlink:href="#DejaVuSans-61" transform="translate(1142.273438 0)"/>
     <use xlink:href="#DejaVuSans-64" transform="translate(1203.552734 0)"/>
     <use xlink:href="#DejaVuSans-61" transform="translate(1267.029297 0)"/>
    </g>
   </g>
   <g id="legend_1">
    <g id="patch_7">
     <path d="M 97 89.366562 
L 214.9625 89.366562 
Q 216.9625 89.366562 216.9625 87.366562 
L 216.9625 58.84 
Q 216.9625 56.84 214.9625 56.84 
L 97 56.84 
Q 95 56.84 95 58.84 
L 95 87.366562 
Q 95 89.366562 97 89.366562 
z
" style="fill: #ffffff; opacity: 0.8; stroke: #cccccc; stroke-linejoin: miter"/>
    </g>
    <g id="line2d_31">
     <g>
      <use xlink:href="#mce20d8c785" x="109" y="64.938437" style="fill: #ff0000; stroke: #ff0000"/>
     </g>
    </g>
    <g id="text_18">
     <!-- Dados de Treino -->
     <g transform="translate(127 68.438437) scale(0.1 -0.1)">
      <defs>
       <path id="DejaVuSans-44" d="M 1259 4147 
L 1259 519 
L 2022 519 
Q 2988 519 3436 956 
Q 3884 1394 3884 2338 
Q 3884 3275 3436 3711 
Q 2988 4147 2022 4147 
L 1259 4147 
z
M 628 4666 
L 1925 4666 
Q 3281 4666 3915 4102 
Q 4550 3538 4550 2338 
Q 4550 1131 3912 565 
Q 3275 0 1925 0 
L 628 0 
L 628 4666 
z
" transform="scale(0.015625)"/>
       <path id="DejaVuSans-54" d="M -19 4666 
L 3928 4666 
L 3928 4134 
L 2272 4134 
L 2272 0 
L 1638 0 
L 1638 4134 
L -19 4134 
L -19 4666 
z
" transform="scale(0.015625)"/>
      </defs>
      <use xlink:href="#DejaVuSans-44"/>
      <use xlink:href="#DejaVuSans-61" transform="translate(77.001953 0)"/>
      <use xlink:href="#DejaVuSans-64" transform="translate(138.28125 0)"/>
      <use xlink:href="#DejaVuSans-6f" transform="translate(201.757812 0)"/>
      <use xlink:href="#DejaVuSans-73" transform="translate(262.939453 0)"/>
      <use xlink:href="#DejaVuSans-20" transform="translate(315.039062 0)"/>
      <use xlink:href="#DejaVuSans-64" transform="translate(346.826172 0)"/>
      <use xlink:href="#DejaVuSans-65" transform="translate(410.302734 0)"/>
      <use xlink:href="#DejaVuSans-20" transform="translate(471.826172 0)"/>
      <use xlink:href="#DejaVuSans-54" transform="translate(503.613281 0)"/>
      <use xlink:href="#DejaVuSans-72" transform="translate(549.947266 0)"/>
      <use xlink:href="#DejaVuSans-65" transform="translate(588.810547 0)"/>
      <use xlink:href="#DejaVuSans-69" transform="translate(650.333984 0)"/>
      <use xlink:href="#DejaVuSans-6e" transform="translate(678.117188 0)"/>
      <use xlink:href="#DejaVuSans-6f" transform="translate(741.496094 0)"/>
     </g>
    </g>
    <g id="line2d_32">
     <path d="M 99 79.786875 
L 109 79.786875 
L 119 79.786875 
" style="fill: none; stroke: #0000ff; stroke-width: 1.5; stroke-linecap: square"/>
    </g>
    <g id="text_19">
     <!-- Regressão Linear -->
     <g transform="translate(127 83.286875) scale(0.1 -0.1)">
      <use xlink:href="#DejaVuSans-52"/>
      <use xlink:href="#DejaVuSans-65" transform="translate(64.982422 0)"/>
      <use xlink:href="#DejaVuSans-67" transform="translate(126.505859 0)"/>
      <use xlink:href="#DejaVuSans-72" transform="translate(189.982422 0)"/>
      <use xlink:href="#DejaVuSans-65" transform="translate(228.845703 0)"/>
      <use xlink:href="#DejaVuSans-73" transform="translate(290.369141 0)"/>
      <use xlink:href="#DejaVuSans-73" transform="translate(342.46875 0)"/>
      <use xlink:href="#DejaVuSans-e3" transform="translate(394.568359 0)"/>
      <use xlink:href="#DejaVuSans-6f" transform="translate(455.847656 0)"/>
      <use xlink:href="#DejaVuSans-20" transform="translate(517.029297 0)"/>
      <use xlink:href="#DejaVuSans-4c" transform="translate(548.816406 0)"/>
      <use xlink:href="#DejaVuSans-69" transform="translate(604.529297 0)"/>
      <use xlink:href="#DejaVuSans-6e" transform="translate(632.3125 0)"/>
      <use xlink:href="#DejaVuSans-65" transform="translate(695.691406 0)"/>
      <use xlink:href="#DejaVuSans-61" transform="translate(757.214844 0)"/>
      <use xlink:href="#DejaVuSans-72" transform="translate(818.494141 0)"/>
     </g>
    </g>
   </g>
  </g>
 </g>
 <defs>
  <clipPath id="p7b5bf04468">
   <rect x="90" y="51.84" width="558" height="332.64"/>
  </clipPath>
 </defs>
</svg>
